<svg width="300" height="300" viewBox="0 0 300 300" xmlns="http://www.w3.org/2000/svg">
  <!-- Círculo externo -->
  <circle cx="150" cy="150" r="145" fill="white"/>
  <circle cx="150" cy="150" r="140" fill="none" stroke="#d4a574" stroke-width="3"/>
  <circle cx="150" cy="150" r="125" fill="none" stroke="#f4e4d7" stroke-width="1.5"/>
  
  <!-- Guirlanda de flores no topo -->
  <g transform="translate(150, 50)">
    <!-- Flor 1 -->
    <g transform="translate(-52.5, 18.2)">
      <circle r="6" fill="#ffc0cb" opacity="0.8"/>
      <circle r="3" fill="#d4a574"/>
    </g>
    <!-- Flor 2 -->
    <g transform="translate(-35, 10.9)">
      <circle r="6" fill="#ffc0cb" opacity="0.8"/>
      <circle r="3" fill="#d4a574"/>
    </g>
    <!-- Flor 3 -->
    <g transform="translate(-17.5, 5.2)">
      <circle r="6" fill="#ffc0cb" opacity="0.8"/>
      <circle r="3" fill="#d4a574"/>
    </g>
    <!-- Flor 4 (central) -->
    <g transform="translate(0, 0)">
      <circle r="6" fill="#ffc0cb" opacity="0.8"/>
      <circle r="3" fill="#d4a574"/>
    </g>
    <!-- Flor 5 -->
    <g transform="translate(17.5, 5.2)">
      <circle r="6" fill="#ffc0cb" opacity="0.8"/>
      <circle r="3" fill="#d4a574"/>
    </g>
    <!-- Flor 6 -->
    <g transform="translate(35, 10.9)">
      <circle r="6" fill="#ffc0cb" opacity="0.8"/>
      <circle r="3" fill="#d4a574"/>
    </g>
    <!-- Flor 7 -->
    <g transform="translate(52.5, 18.2)">
      <circle r="6" fill="#ffc0cb" opacity="0.8"/>
      <circle r="3" fill="#d4a574"/>
    </g>
  </g>
  
  <!-- Monograma central -->
  <circle cx="150" cy="150" r="60" fill="none" stroke="#d4a574" stroke-width="1.5"/>
  
  <text x="115" y="170" font-size="65" font-family="'Playfair Display', 'Georgia', serif" fill="#b8936d" font-weight="400" font-style="italic">
    R
  </text>
  <text x="158" y="155" font-size="32" font-family="serif" fill="#d4a574" font-weight="300">
    &amp;
  </text>
  <text x="175" y="170" font-size="65" font-family="'Playfair Display', 'Georgia', serif" fill="#b8936d" font-weight="400" font-style="italic">
    E
  </text>
  
  <!-- Guirlanda de flores na base -->
  <g transform="translate(150, 250)">
    <!-- Flor 1 -->
    <g transform="translate(-52.5, -18.2)">
      <circle r="6" fill="#ffc0cb" opacity="0.8"/>
      <circle r="3" fill="#d4a574"/>
    </g>
    <!-- Flor 2 -->
    <g transform="translate(-35, -10.9)">
      <circle r="6" fill="#ffc0cb" opacity="0.8"/>
      <circle r="3" fill="#d4a574"/>
    </g>
    <!-- Flor 3 -->
    <g transform="translate(-17.5, -5.2)">
      <circle r="6" fill="#ffc0cb" opacity="0.8"/>
      <circle r="3" fill="#d4a574"/>
    </g>
    <!-- Flor 4 (central) -->
    <g transform="translate(0, 0)">
      <circle r="6" fill="#ffc0cb" opacity="0.8"/>
      <circle r="3" fill="#d4a574"/>
    </g>
    <!-- Flor 5 -->
    <g transform="translate(17.5, -5.2)">
      <circle r="6" fill="#ffc0cb" opacity="0.8"/>
      <circle r="3" fill="#d4a574"/>
    </g>
    <!-- Flor 6 -->
    <g transform="translate(35, -10.9)">
      <circle r="6" fill="#ffc0cb" opacity="0.8"/>
      <circle r="3" fill="#d4a574"/>
    </g>
    <!-- Flor 7 -->
    <g transform="translate(52.5, -18.2)">
      <circle r="6" fill="#ffc0cb" opacity="0.8"/>
      <circle r="3" fill="#d4a574"/>
    </g>
  </g>
  
  <!-- Folhas decorativas -->
  <ellipse cx="80" cy="150" rx="15" ry="5" fill="#c8e6c9" opacity="0.5" transform="rotate(-30 80 150)"/>
  <ellipse cx="220" cy="150" rx="15" ry="5" fill="#c8e6c9" opacity="0.5" transform="rotate(30 220 150)"/>
</svg>
